<svg width="176" height="27" viewBox="0 0 176 27" fill="none" xmlns="http://www.w3.org/2000/svg">
<path d="M0.904 20V0.399999H4.488V8.548H13.28V0.399999H16.864V20H13.28V11.46H4.488V20H0.904ZM25.3775 20.336C24.1829 20.336 23.2029 20.1493 22.4375 19.776C21.6722 19.384 21.1029 18.8707 20.7295 18.236C20.3562 17.6013 20.1695 16.9013 20.1695 16.136C20.1695 14.848 20.6735 13.8027 21.6815 13C22.6895 12.1973 24.2015 11.796 26.2175 11.796H29.7455V11.46C29.7455 10.508 29.4749 9.808 28.9335 9.36C28.3922 8.912 27.7202 8.688 26.9175 8.688C26.1895 8.688 25.5549 8.86533 25.0135 9.22C24.4722 9.556 24.1362 10.06 24.0055 10.732H20.5055C20.5989 9.724 20.9349 8.84667 21.5135 8.1C22.1109 7.35333 22.8762 6.784 23.8095 6.392C24.7429 5.98133 25.7882 5.776 26.9455 5.776C28.9242 5.776 30.4829 6.27067 31.6215 7.26C32.7602 8.24933 33.3295 9.64933 33.3295 11.46V20H30.2775L29.9415 17.76C29.5309 18.5067 28.9522 19.1227 28.2055 19.608C27.4775 20.0933 26.5349 20.336 25.3775 20.336ZM26.1895 17.536C27.2162 17.536 28.0095 17.2 28.5695 16.528C29.1482 15.856 29.5122 15.0253 29.6615 14.036H26.6095C25.6575 14.036 24.9762 14.2133 24.5655 14.568C24.1549 14.904 23.9495 15.324 23.9495 15.828C23.9495 16.3693 24.1549 16.7893 24.5655 17.088C24.9762 17.3867 25.5175 17.536 26.1895 17.536ZM36.7497 26.16V6.112H39.9417L40.3337 8.1C40.7817 7.484 41.3697 6.94267 42.0977 6.476C42.8444 6.00933 43.8057 5.776 44.9817 5.776C46.2884 5.776 47.455 6.09333 48.4817 6.728C49.5084 7.36267 50.3204 8.23067 50.9177 9.332C51.515 10.4333 51.8137 11.684 51.8137 13.084C51.8137 14.484 51.515 15.7347 50.9177 16.836C50.3204 17.9187 49.5084 18.7773 48.4817 19.412C47.455 20.028 46.2884 20.336 44.9817 20.336C43.9364 20.336 43.0217 20.14 42.2377 19.748C41.4537 19.356 40.819 18.8053 40.3337 18.096V26.16H36.7497ZM44.2257 17.2C45.3644 17.2 46.307 16.8173 47.0537 16.052C47.8004 15.2867 48.1737 14.2973 48.1737 13.084C48.1737 11.8707 47.8004 10.872 47.0537 10.088C46.307 9.304 45.3644 8.912 44.2257 8.912C43.0684 8.912 42.1164 9.304 41.3697 10.088C40.6417 10.8533 40.2777 11.8427 40.2777 13.056C40.2777 14.2693 40.6417 15.268 41.3697 16.052C42.1164 16.8173 43.0684 17.2 44.2257 17.2ZM55.0153 26.16V6.112H58.2073L58.5993 8.1C59.0473 7.484 59.6353 6.94267 60.3633 6.476C61.11 6.00933 62.0713 5.776 63.2473 5.776C64.554 5.776 65.7206 6.09333 66.7473 6.728C67.774 7.36267 68.586 8.23067 69.1833 9.332C69.7806 10.4333 70.0793 11.684 70.0793 13.084C70.0793 14.484 69.7806 15.7347 69.1833 16.836C68.586 17.9187 67.774 18.7773 66.7473 19.412C65.7206 20.028 64.554 20.336 63.2473 20.336C62.202 20.336 61.2873 20.14 60.5033 19.748C59.7193 19.356 59.0846 18.8053 58.5993 18.096V26.16H55.0153ZM62.4913 17.2C63.63 17.2 64.5726 16.8173 65.3193 16.052C66.066 15.2867 66.4393 14.2973 66.4393 13.084C66.4393 11.8707 66.066 10.872 65.3193 10.088C64.5726 9.304 63.63 8.912 62.4913 8.912C61.334 8.912 60.382 9.304 59.6353 10.088C58.9073 10.8533 58.5433 11.8427 58.5433 13.056C58.5433 14.2693 58.9073 15.268 59.6353 16.052C60.382 16.8173 61.334 17.2 62.4913 17.2ZM73.7591 26.16L76.9791 19.076H76.1391L70.7351 6.112H74.6271L78.5191 15.884L82.5791 6.112H86.3871L77.5671 26.16H73.7591ZM95.486 20V0.399999H99.07V8.548H107.862V0.399999H111.446V20H107.862V11.46H99.07V20H95.486ZM135.187 20V6.112H138.351L138.659 7.988C139.107 7.316 139.695 6.784 140.423 6.392C141.17 5.98133 142.029 5.776 142.999 5.776C145.146 5.776 146.667 6.60667 147.563 8.268C148.067 7.50267 148.739 6.896 149.579 6.448C150.438 6 151.371 5.776 152.379 5.776C154.19 5.776 155.581 6.31733 156.551 7.4C157.522 8.48267 158.007 10.0693 158.007 12.16V20H154.423V12.496C154.423 11.3013 154.19 10.3867 153.723 9.752C153.275 9.11733 152.575 8.8 151.623 8.8C150.653 8.8 149.869 9.15467 149.271 9.864C148.693 10.5733 148.403 11.5627 148.403 12.832V20H144.819V12.496C144.819 11.3013 144.586 10.3867 144.119 9.752C143.653 9.11733 142.934 8.8 141.963 8.8C141.011 8.8 140.237 9.15467 139.639 9.864C139.061 10.5733 138.771 11.5627 138.771 12.832V20H135.187ZM168.158 20.336C166.758 20.336 165.517 20.0373 164.434 19.44C163.351 18.8427 162.502 18.0027 161.886 16.92C161.27 15.8373 160.962 14.5867 160.962 13.168C160.962 11.7307 161.261 10.452 161.858 9.332C162.474 8.212 163.314 7.344 164.378 6.728C165.461 6.09333 166.73 5.776 168.186 5.776C169.549 5.776 170.753 6.07467 171.798 6.672C172.843 7.26933 173.655 8.09067 174.234 9.136C174.831 10.1627 175.13 11.3107 175.13 12.58C175.13 12.7853 175.121 13 175.102 13.224C175.102 13.448 175.093 13.6813 175.074 13.924H164.518C164.593 15.0067 164.966 15.856 165.638 16.472C166.329 17.088 167.159 17.396 168.13 17.396C168.858 17.396 169.465 17.2373 169.95 16.92C170.454 16.584 170.827 16.1547 171.07 15.632H174.71C174.449 16.5093 174.01 17.312 173.394 18.04C172.797 18.7493 172.05 19.3093 171.154 19.72C170.277 20.1307 169.278 20.336 168.158 20.336ZM168.186 8.688C167.309 8.688 166.534 8.94 165.862 9.444C165.19 9.92933 164.761 10.676 164.574 11.684H171.49C171.434 10.7693 171.098 10.0413 170.482 9.5C169.866 8.95867 169.101 8.688 168.186 8.688Z" fill="black"/>
</svg>
